<svg xmlns="http://www.w3.org/2000/svg" viewBox="0 0 682.74 129.28"><defs><style>.cls-1{fill:#c00d0e;}.cls-2{fill:#693;}.cls-3{fill:#fff;}.cls-4{fill:#424648;}</style></defs><g id="Layer_2" data-name="Layer 2"><g id="Logo_icon_copy_Image" data-name="Logo icon copy Image"><path d="M313.06,54.93v1.66a16.12,16.12,0,0,1-.26,2.56H261.73A43.12,43.12,0,0,0,264,71.76a24.48,24.48,0,0,0,4.92,8.38,17.54,17.54,0,0,0,6.83,4.61,22.67,22.67,0,0,0,7.91,1.41,21,21,0,0,0,12.82-4.22q5.69-4.23,7.47-12.68h8.19a29,29,0,0,1-4,10.24,27.1,27.1,0,0,1-6.71,7.24A27.4,27.4,0,0,1,292.87,91,34.21,34.21,0,0,1,283,92.43a30.88,30.88,0,0,1-11.75-2.24,26.57,26.57,0,0,1-9.58-6.65,30.85,30.85,0,0,1-6.39-11.08A47.89,47.89,0,0,1,253,56.85a43.54,43.54,0,0,1,2.37-14.79A33.41,33.41,0,0,1,262,30.8a28.82,28.82,0,0,1,10-7.17,30.82,30.82,0,0,1,12.39-2.49,28.11,28.11,0,0,1,12.51,2.62A25.2,25.2,0,0,1,305.78,31a32.77,32.77,0,0,1,5.42,10.75A45.36,45.36,0,0,1,313.06,54.93ZM284.19,27.41a20.4,20.4,0,0,0-8,1.61,20.76,20.76,0,0,0-6.89,4.76,25.65,25.65,0,0,0-5.11,7.91,33.2,33.2,0,0,0-2.42,11.19h43.39q-.64-13.12-6.51-19.3A19.13,19.13,0,0,0,284.19,27.41Z"/><path d="M357.09,21.39a12.78,12.78,0,0,1,4,.51v6.28a19.61,19.61,0,0,0-8.12.89,15.69,15.69,0,0,0-6.53,4.23A20,20,0,0,0,342.11,41a38.39,38.39,0,0,0-1.54,11.58v38h-7.93V22.93h7.93V35.22l4.87-8.71a16.35,16.35,0,0,1,5.31-3.77A15.3,15.3,0,0,1,357.09,21.39Z"/><path d="M376.54,90.64V22.93h7.94V90.64Z"/><path d="M418.78,72.08v3.39c0,.81,0,1.69.13,2.63q.38,4.86,2.94,6.4t9.47.64V91a33.63,33.63,0,0,1-4.09.52c-1.37.08-2.73.12-4.1.12q-5.76,0-8.7-2.56T411,80.91c-.08-1.19-.13-2.45-.13-3.77V29.58h-8.7V23.31h8.7v-15h7.94v15h12.93v6.27H418.78Z"/><path class="cls-1" d="M476.76,21.26a10.25,10.25,0,0,1,4.61.9v8.32a22.49,22.49,0,0,0-8.06.9,15.51,15.51,0,0,0-6.4,3.77A18.06,18.06,0,0,0,462.68,42a29.33,29.33,0,0,0-1.53,10V90.64h-11V22.8h11V33.42l6.14-9.08A16.49,16.49,0,0,1,476.76,21.26Z"/><path class="cls-1" d="M524,21a36.07,36.07,0,0,1,15,2.88,29.25,29.25,0,0,1,10.44,7.74A32.78,32.78,0,0,1,555.61,43a45.71,45.71,0,0,1,2,13.7,45,45,0,0,1-2,13.63,33.41,33.41,0,0,1-6.14,11.39A28.84,28.84,0,0,1,539,89.55a40.53,40.53,0,0,1-30,0,28.64,28.64,0,0,1-10.5-7.81,33.24,33.24,0,0,1-6.14-11.39,44.71,44.71,0,0,1-2.05-13.63A45.4,45.4,0,0,1,492.38,43a32.61,32.61,0,0,1,6.14-11.39A29.05,29.05,0,0,1,509,23.89,36.18,36.18,0,0,1,524,21Zm0,63a19.35,19.35,0,0,0,15.94-7.68,25.81,25.81,0,0,0,4.22-8.64,39,39,0,0,0,1.48-10.94,38.89,38.89,0,0,0-1.48-11,26.78,26.78,0,0,0-4.22-8.64,18.88,18.88,0,0,0-6.78-5.63,22.16,22.16,0,0,0-18.31,0,18.71,18.71,0,0,0-6.78,5.63,26.6,26.6,0,0,0-4.23,8.64,38.9,38.9,0,0,0-1.47,11,39,39,0,0,0,1.47,10.94,25.64,25.64,0,0,0,4.23,8.64,19.68,19.68,0,0,0,6.78,5.64A20,20,0,0,0,524,84Z"/><path class="cls-1" d="M604.12,21a36.1,36.1,0,0,1,15,2.88,29.13,29.13,0,0,1,10.43,7.74A32.8,32.8,0,0,1,635.74,43a45.71,45.71,0,0,1,2,13.7,45,45,0,0,1-2,13.63,33.43,33.43,0,0,1-6.15,11.39,28.72,28.72,0,0,1-10.43,7.81,40.53,40.53,0,0,1-30,0,28.64,28.64,0,0,1-10.5-7.81,33.24,33.24,0,0,1-6.14-11.39,44.71,44.71,0,0,1-2-13.63,45.4,45.4,0,0,1,2-13.7,32.61,32.61,0,0,1,6.14-11.39,29.05,29.05,0,0,1,10.5-7.74A36.15,36.15,0,0,1,604.12,21Zm0,63a19.39,19.39,0,0,0,15.94-7.68,25.81,25.81,0,0,0,4.22-8.64,39,39,0,0,0,1.47-10.94,38.9,38.9,0,0,0-1.47-11,26.78,26.78,0,0,0-4.22-8.64,18.83,18.83,0,0,0-6.79-5.63,22.13,22.13,0,0,0-18.3,0,18.71,18.71,0,0,0-6.78,5.63A26.6,26.6,0,0,0,584,45.71a38.9,38.9,0,0,0-1.47,11A39,39,0,0,0,584,67.66a25.64,25.64,0,0,0,4.23,8.64A19.68,19.68,0,0,0,595,81.94,20,20,0,0,0,604.12,84Z"/><path class="cls-1" d="M669.4,70.8v2.82c0,.68,0,1.49.13,2.43.26,3.24,1.19,5.33,2.82,6.27s4.6,1.15,9,.64V91a47.63,47.63,0,0,1-4.74.52c-1.54.08-3.07.12-4.61.12q-6.4,0-9.66-2.75t-3.78-9.15c-.08-.94-.13-2.09-.13-3.46V31.76h-9.08V23.31h9.08V7.57h11V23.31h12.67v8.45H669.4Z"/><path class="cls-1" d="M380.51,1.64a6.53,6.53,0,0,1,6.69,6.7,6.55,6.55,0,0,1-1.91,4.7,6.64,6.64,0,0,1-9.48,0,6.44,6.44,0,0,1-2-4.7,6.37,6.37,0,0,1,2-4.79A6.56,6.56,0,0,1,380.51,1.64Z"/><path class="cls-2" d="M84.39,87.91s6,1.64,9.6,1.64,13.5-1.06,13.5-11.46c0-9.83-1.63-11.84-1.63-11.84s-.34,3.49-10.52,6.7a20.18,20.18,0,0,0-8.62,4.87,10.41,10.41,0,0,0-1.66,2.24,13,13,0,0,0-.85,3.45c-.37,1.57-2,2.42-3.19,3.3-1.93,1.4-4.2,3.73-4.2,6.28l.81,2.44c.52-1.18,1-2.42,1.58-3.55a12.49,12.49,0,0,1,2.52-3.26,13.54,13.54,0,0,1,2.1-1.6,46.78,46.78,0,0,1,11-4.77c3.43-1.13,7.43-4.65,7.26-7.83,0,0,1.53-.2,1.1,1.6s-3.08,5.54-9.51,7.69S85.43,87.26,84.39,87.91Z"/><path class="cls-2" d="M39.53,102.38s-6,1.63-9.6,1.63S16.43,103,16.43,92.55c0-9.83,1.63-11.84,1.63-11.84s.34,3.5,10.52,6.71a20.18,20.18,0,0,1,8.62,4.87,10.41,10.41,0,0,1,1.66,2.24A13,13,0,0,1,39.71,98c.37,1.57,2,2.42,3.19,3.29,1.93,1.41,4.2,3.73,4.2,6.29l-1.49,1.08-.26-.78a12.47,12.47,0,0,0-5.26-6.27,47.28,47.28,0,0,0-11-4.78c-3.43-1.12-7.43-4.65-7.26-7.82,0,0-1.53-.2-1.1,1.6s3.08,5.54,9.51,7.69S38.49,101.73,39.53,102.38Z"/><path class="cls-1" d="M35.87,121.09,0,129.28H127.69l-35.86-8.19C77.59,109,74.05,85,78.87,73c4.34-1.07,13-9,13-9,37-3.43,34.92-58.25,34.92-58.25H104.89V3S89,0,63.85,0s-41,3-41,3V5.77H.94S-1.18,60.59,35.87,64c0,0,8.62,7.88,13,9C53.64,85,50.11,109,35.87,121.09ZM103.59,13.32h12.22s-1.29,36.62-18.15,38.23C97.66,51.55,98.12,51.06,103.59,13.32Zm-91.71,0H24.1C29.58,51.06,30,51.55,30,51.55,13.17,49.94,11.88,13.32,11.88,13.32Z"/><path class="cls-3" d="M81.12,23.69a12.18,12.18,0,0,0-16.92-.28,12.17,12.17,0,0,0-17.1.47L45.17,22a3.85,3.85,0,1,0-5.45,5.45l4,4c0,.28,0,.57,0,.85V46.47A3.85,3.85,0,0,0,50.44,49a3.78,3.78,0,0,0,1-2.57V32.8a4.47,4.47,0,0,1,4.47-4.46,4.4,4.4,0,0,1,3.16,1.31,4.35,4.35,0,0,1,1.3,3v5.47a1.27,1.27,0,0,0,0,.2v8.11a3.85,3.85,0,0,0,7.7,0V32.69A4.47,4.47,0,0,1,77,32.8v1.05a2.44,2.44,0,0,0,0,.27V46.47a3.86,3.86,0,0,0,3.85,3.85,3.85,3.85,0,0,0,3.85-3.85V38.58c0-.14,0-.28,0-.42V32.29A12.11,12.11,0,0,0,81.12,23.69Z"/><path class="cls-4" d="M159.58,106.11a9,9,0,0,1,3.2.52,7.07,7.07,0,0,1,2.33,1.42,6.76,6.76,0,0,1,1.51,2.14,9.21,9.21,0,0,1,.7,2.67h-3.65a4.59,4.59,0,0,0-1.28-3,4.11,4.11,0,0,0-3-1.06,4.58,4.58,0,0,0-2.64.74,2.59,2.59,0,0,0-1.07,2.3,3,3,0,0,0,1.09,2.46,9.79,9.79,0,0,0,3.65,1.47,11.55,11.55,0,0,1,5.42,2.46,5.74,5.74,0,0,1,1.75,4.41,5.61,5.61,0,0,1-.63,2.68,6.06,6.06,0,0,1-1.69,2,7.88,7.88,0,0,1-2.5,1.28,10,10,0,0,1-3,.45,9.78,9.78,0,0,1-6.1-1.76,7,7,0,0,1-2.64-5.12h3.65a4.89,4.89,0,0,0,5.09,4.16,4.77,4.77,0,0,0,2.92-.88,2.8,2.8,0,0,0,1.2-2.38,3.44,3.44,0,0,0-1.12-2.72,8.68,8.68,0,0,0-3.8-1.59,25.08,25.08,0,0,1-2.87-.88,8,8,0,0,1-2.21-1.25,5.28,5.28,0,0,1-1.4-1.79,6.17,6.17,0,0,1,.11-5.11,5.84,5.84,0,0,1,1.65-2,7.55,7.55,0,0,1,2.43-1.25A10.08,10.08,0,0,1,159.58,106.11Z"/><path class="cls-4" d="M183.22,109.31v19.33H179.7V109.31H172v-2.75h18.95v2.75Z"/><path class="cls-4" d="M211.61,122.94a21.1,21.1,0,0,0,.53,3.44,6.6,6.6,0,0,0,1,2.26h-3.87a12.32,12.32,0,0,1-.69-2.26c-.16-.77-.3-1.77-.43-3a6.46,6.46,0,0,0-.93-2.8,2.72,2.72,0,0,0-2.24-1.13,7.44,7.44,0,0,0-.81,0h-4.24v9.22h-3.52V106.56H204l1.57,0a13.43,13.43,0,0,1,1.47.11,9.08,9.08,0,0,1,2.24.56,5,5,0,0,1,1.76,1.12,5.21,5.21,0,0,1,1.17,1.76,6.31,6.31,0,0,1,.43,2.45A5,5,0,0,1,211.5,116a6.6,6.6,0,0,1-2.93,1.83,4.17,4.17,0,0,1,2.19,2A8.49,8.49,0,0,1,211.61,122.94Zm-8-6.24h1.12a6,6,0,0,0,.86-.06,4.22,4.22,0,0,0,2.4-1,3.33,3.33,0,0,0,1-2.62,3.49,3.49,0,0,0-.81-2.57,3.85,3.85,0,0,0-2.26-1l-.91-.1q-.47,0-1.14,0h-3.9v7.39Z"/><path class="cls-4" d="M228.47,106.11a11.62,11.62,0,0,1,4.51.83,9.37,9.37,0,0,1,3.35,2.34,10.09,10.09,0,0,1,2.06,3.63,14.84,14.84,0,0,1,.7,4.69,14.67,14.67,0,0,1-.7,4.67,10.26,10.26,0,0,1-2.06,3.63,9.17,9.17,0,0,1-3.35,2.36,12.67,12.67,0,0,1-9,0,9.38,9.38,0,0,1-3.36-2.36,10,10,0,0,1-2.08-3.63,14.67,14.67,0,0,1-.71-4.67,14.84,14.84,0,0,1,.71-4.69,9.84,9.84,0,0,1,2.08-3.63,9.59,9.59,0,0,1,3.36-2.34A11.66,11.66,0,0,1,228.47,106.11Zm0,20.26a6,6,0,0,0,5-2.33,10.23,10.23,0,0,0,1.81-6.44,10.23,10.23,0,0,0-1.81-6.46,6.69,6.69,0,0,0-10.11,0,10.23,10.23,0,0,0-1.81,6.46A10.23,10.23,0,0,0,223.4,124,6,6,0,0,0,228.47,126.37Z"/><path class="cls-4" d="M259,128.64l-9.79-18.21c0,1.28.07,2.59.09,3.92s0,2.58,0,3.73v10.56h-3.52V106.56h5l9.88,18.34c0-1.26-.06-2.57-.08-3.94s0-2.62,0-3.78V106.56h3.45l0,22.08Z"/><path class="cls-4" d="M290.2,117.7v10.94h-3l-.12-3.74-1,2.14a7.16,7.16,0,0,1-5.56,2,10.33,10.33,0,0,1-4.23-.83,9,9,0,0,1-3.15-2.34,10.11,10.11,0,0,1-2-3.6,15,15,0,0,1-.67-4.62,13.78,13.78,0,0,1,.78-4.74,10.81,10.81,0,0,1,2.2-3.66,9.74,9.74,0,0,1,3.36-2.36,11,11,0,0,1,4.3-.83,11.74,11.74,0,0,1,3.83.57,8.11,8.11,0,0,1,2.8,1.58,7.42,7.42,0,0,1,1.82,2.41,9.17,9.17,0,0,1,.81,3l0,.32H286.9l-.06-.32a6.48,6.48,0,0,0-1.84-3.56,5.53,5.53,0,0,0-3.92-1.31,6.25,6.25,0,0,0-2.79.62,6.11,6.11,0,0,0-2.12,1.77,8.48,8.48,0,0,0-1.36,2.76,12.41,12.41,0,0,0-.48,3.56,13.12,13.12,0,0,0,.48,3.68,8.62,8.62,0,0,0,1.34,2.79,6.07,6.07,0,0,0,7,1.94,5.14,5.14,0,0,0,1.81-1.17,5.55,5.55,0,0,0,1.23-1.85,6.87,6.87,0,0,0,.53-2.42h-4.93V117.7Z"/><path class="cls-4" d="M322,122.94a22.42,22.42,0,0,0,.52,3.44,6.61,6.61,0,0,0,1,2.26h-3.87a12.32,12.32,0,0,1-.69-2.26c-.16-.77-.3-1.77-.43-3a6.46,6.46,0,0,0-.93-2.8,2.72,2.72,0,0,0-2.24-1.13,7.57,7.57,0,0,0-.81,0h-4.24v9.22h-3.52V106.56h7.61l1.57,0a13.43,13.43,0,0,1,1.47.11,9.08,9.08,0,0,1,2.24.56,5.1,5.1,0,0,1,1.76,1.12,5.21,5.21,0,0,1,1.17,1.76,6.31,6.31,0,0,1,.43,2.45,4.91,4.91,0,0,1-1.17,3.45,6.51,6.51,0,0,1-2.92,1.83,4.17,4.17,0,0,1,2.19,2A8.49,8.49,0,0,1,322,122.94Zm-8-6.24h1.12a6.11,6.11,0,0,0,.86-.06,4.22,4.22,0,0,0,2.4-1,3.33,3.33,0,0,0,1-2.62,3.45,3.45,0,0,0-.82-2.57,3.79,3.79,0,0,0-2.25-1l-.91-.1q-.47,0-1.14,0h-3.9v7.39Z"/><path class="cls-4" d="M338.87,106.11a11.62,11.62,0,0,1,4.51.83,9.46,9.46,0,0,1,3.35,2.34,10.09,10.09,0,0,1,2.06,3.63,14.84,14.84,0,0,1,.7,4.69,14.67,14.67,0,0,1-.7,4.67,10.26,10.26,0,0,1-2.06,3.63,9.26,9.26,0,0,1-3.35,2.36,12.67,12.67,0,0,1-9,0A9.38,9.38,0,0,1,331,125.9a10,10,0,0,1-2.08-3.63,14.67,14.67,0,0,1-.71-4.67,14.84,14.84,0,0,1,.71-4.69,9.84,9.84,0,0,1,2.08-3.63,9.59,9.59,0,0,1,3.36-2.34A11.62,11.62,0,0,1,338.87,106.11Zm0,20.26a6,6,0,0,0,5-2.33,10.23,10.23,0,0,0,1.81-6.44,10.23,10.23,0,0,0-1.81-6.46,6.69,6.69,0,0,0-10.11,0A10.23,10.23,0,0,0,332,117.6,10.23,10.23,0,0,0,333.8,124,6,6,0,0,0,338.87,126.37Z"/><path class="cls-4" d="M365.43,106.11a11.62,11.62,0,0,1,4.51.83,9.46,9.46,0,0,1,3.35,2.34,10.09,10.09,0,0,1,2.06,3.63,14.84,14.84,0,0,1,.7,4.69,14.67,14.67,0,0,1-.7,4.67,10.26,10.26,0,0,1-2.06,3.63,9.26,9.26,0,0,1-3.35,2.36,12.67,12.67,0,0,1-9,0,9.21,9.21,0,0,1-3.36-2.36,10,10,0,0,1-2.08-3.63,14.67,14.67,0,0,1-.71-4.67,14.84,14.84,0,0,1,.71-4.69,9.84,9.84,0,0,1,2.08-3.63,9.41,9.41,0,0,1,3.36-2.34A11.62,11.62,0,0,1,365.43,106.11Zm0,20.26a6,6,0,0,0,5-2.33,10.29,10.29,0,0,0,1.81-6.44,10.3,10.3,0,0,0-1.81-6.46,6.69,6.69,0,0,0-10.11,0,10.23,10.23,0,0,0-1.81,6.46,10.23,10.23,0,0,0,1.81,6.44A6,6,0,0,0,365.43,126.37Z"/><path class="cls-4" d="M390.93,109.31v19.33h-3.52V109.31H379.7v-2.75h18.95v2.75Z"/><path class="cls-4" d="M411.19,106.11a9,9,0,0,1,3.2.52,7,7,0,0,1,2.34,1.42,6.57,6.57,0,0,1,1.5,2.14,8.9,8.9,0,0,1,.7,2.67h-3.64a4.64,4.64,0,0,0-1.28-3,4.13,4.13,0,0,0-3-1.06,4.54,4.54,0,0,0-2.64.74,2.57,2.57,0,0,0-1.07,2.3,3,3,0,0,0,1.08,2.46A10,10,0,0,0,412,115.8a11.65,11.65,0,0,1,5.43,2.46,6.33,6.33,0,0,1,1.12,7.09,6.21,6.21,0,0,1-1.7,2,7.77,7.77,0,0,1-2.5,1.28,9.94,9.94,0,0,1-3,.45,9.78,9.78,0,0,1-6.1-1.76,7.1,7.1,0,0,1-2.64-5.12h3.65a5.22,5.22,0,0,0,1.79,3.1,5.16,5.16,0,0,0,3.3,1.06,4.8,4.8,0,0,0,2.93-.88,2.8,2.8,0,0,0,1.2-2.38,3.47,3.47,0,0,0-1.12-2.72,8.78,8.78,0,0,0-3.81-1.59,24.29,24.29,0,0,1-2.86-.88,7.82,7.82,0,0,1-2.21-1.25,5.19,5.19,0,0,1-1.41-1.79,6.17,6.17,0,0,1,.11-5.11,6.07,6.07,0,0,1,1.65-2,7.55,7.55,0,0,1,2.43-1.25A10.13,10.13,0,0,1,411.19,106.11Z"/><path class="cls-4" d="M444,106.11a11.57,11.57,0,0,1,3.81.57,8.3,8.3,0,0,1,2.78,1.58,7.39,7.39,0,0,1,1.81,2.41,9.17,9.17,0,0,1,.81,3l0,.32h-3.49l-.07-.32a6.43,6.43,0,0,0-1.85-3.56,5.53,5.53,0,0,0-3.91-1.31,6.16,6.16,0,0,0-2.77.62,6.27,6.27,0,0,0-2.11,1.77,8.45,8.45,0,0,0-1.34,2.76,12.79,12.79,0,0,0-.46,3.56,13.53,13.53,0,0,0,.46,3.68A8.41,8.41,0,0,0,439,124a5.83,5.83,0,0,0,2.06,1.75,5.76,5.76,0,0,0,2.67.61,5.42,5.42,0,0,0,3.91-1.35,6.56,6.56,0,0,0,1.85-3.58l.07-.32H453l0,.32a8.63,8.63,0,0,1-.84,3,7.79,7.79,0,0,1-1.88,2.43,8.38,8.38,0,0,1-2.86,1.61,11.73,11.73,0,0,1-3.86.59,10.5,10.5,0,0,1-4.25-.83,9.06,9.06,0,0,1-3.2-2.34,10.36,10.36,0,0,1-2-3.6,14.44,14.44,0,0,1-.7-4.62,13.78,13.78,0,0,1,.78-4.74,10.76,10.76,0,0,1,2.18-3.66,9.53,9.53,0,0,1,3.33-2.36A10.77,10.77,0,0,1,444,106.11Z"/><path class="cls-4" d="M475.29,122.94a22.42,22.42,0,0,0,.52,3.44,6.61,6.61,0,0,0,1,2.26H473a12.32,12.32,0,0,1-.69-2.26c-.16-.77-.3-1.77-.43-3a6.46,6.46,0,0,0-.93-2.8,2.72,2.72,0,0,0-2.24-1.13,7.63,7.63,0,0,0-.82,0h-4.23v9.22h-3.53V106.56h7.62l1.57,0a13.43,13.43,0,0,1,1.47.11,9.08,9.08,0,0,1,2.24.56,5.1,5.1,0,0,1,1.76,1.12,5.21,5.21,0,0,1,1.17,1.76,6.31,6.31,0,0,1,.43,2.45,4.91,4.91,0,0,1-1.17,3.45,6.56,6.56,0,0,1-2.92,1.83,4.17,4.17,0,0,1,2.19,2A8.49,8.49,0,0,1,475.29,122.94Zm-8-6.24h1.12a6.11,6.11,0,0,0,.86-.06,4.22,4.22,0,0,0,2.4-1,3.33,3.33,0,0,0,1-2.62,3.45,3.45,0,0,0-.82-2.57,3.79,3.79,0,0,0-2.25-1l-.91-.1q-.47,0-1.14,0h-3.9v7.39Z"/><path class="cls-4" d="M498.23,128.64H483V106.56h15v2.75H486.49v6.91H497V119H486.49v6.84h11.74Z"/><path class="cls-4" d="M508.56,121.34l-2.39,7.3h-3.75l7.94-22.08h4.54l7.71,22.08H518.8l-2.4-7.3Zm6.92-2.75-2.92-9.09-3.07,9.09Z"/><path class="cls-4" d="M535,109.31v19.33h-3.52V109.31H523.8v-2.75h18.94v2.75Z"/><path class="cls-4" d="M563.48,128.64H548.21V106.56h14.95v2.75H551.73v6.91h10.53V119H551.73v6.84h11.75Z"/><path class="cls-4" d="M602,128.64h-3.52V113.76c0-1.41,0-2.7.07-3.87-.32,1.17-.7,2.46-1.12,3.87s-.86,2.74-1.28,4l-3.56,10.88H588.5l-3.58-10.91c-.41-1.24-.83-2.56-1.25-4s-.79-2.69-1.09-3.86c0,1.19.06,2.49.06,3.87v14.85h-3.52V106.56h5.68l5.83,18.94,5.83-18.94H602Z"/><path class="cls-4" d="M625.11,128.64H609.84V106.56h14.95v2.75H613.36v6.91h10.53V119H613.36v6.84h11.75Z"/><path class="cls-4" d="M646.8,122.94a23.55,23.55,0,0,0,.53,3.44,6.43,6.43,0,0,0,1,2.26h-3.87a12.32,12.32,0,0,1-.69-2.26c-.16-.77-.3-1.77-.43-3a6.46,6.46,0,0,0-.93-2.8,2.73,2.73,0,0,0-2.24-1.13,7.63,7.63,0,0,0-.82,0h-4.24v9.22H631.6V106.56h7.62l1.57,0a13.43,13.43,0,0,1,1.47.11,9.08,9.08,0,0,1,2.24.56,5.1,5.1,0,0,1,1.76,1.12,5.21,5.21,0,0,1,1.17,1.76,6.5,6.5,0,0,1,.43,2.45,4.91,4.91,0,0,1-1.17,3.45,6.54,6.54,0,0,1-2.93,1.83,4.16,4.16,0,0,1,2.2,2A8.49,8.49,0,0,1,646.8,122.94Zm-8-6.24h1.12a6.15,6.15,0,0,0,.87-.06,4.22,4.22,0,0,0,2.4-1,3.33,3.33,0,0,0,1-2.62,3.45,3.45,0,0,0-.82-2.57,3.79,3.79,0,0,0-2.25-1l-.92-.1c-.31,0-.68,0-1.13,0h-3.91v7.39Z"/><path class="cls-4" d="M654.48,128.64V106.56H658v22.08Z"/><path class="cls-4" d="M675,109.31v19.33h-3.52V109.31h-7.72v-2.75h19v2.75Z"/><path d="M238.38,41.37V90.64h-7.59V43.44a16.15,16.15,0,0,0-32.3,0v47.2h-7.6V43.44a16.15,16.15,0,1,0-32.3,0v47.2H151V41.37a20.23,20.23,0,0,1,20.23-20.23h7a20.15,20.15,0,0,1,16.44,8.47,20.14,20.14,0,0,1,16.44-8.47h7A20.23,20.23,0,0,1,238.38,41.37Z"/></g></g></svg>