<svg xmlns="http://www.w3.org/2000/svg" viewBox="0 0 203 205.52"><defs><style>.cls-1{fill:#fff;}</style></defs><g id="Layer_2" data-name="Layer 2"><g id="Logo_icon_copy_Image" data-name="Logo icon copy Image"><path class="cls-1" d="M134.16,139.75s9.58,2.6,15.26,2.6,21.46-1.68,21.46-18.22c0-15.62-2.59-18.82-2.59-18.82s-.54,5.55-16.73,10.66c-5,1.57-10,3.91-13.7,7.74a16.69,16.69,0,0,0-2.64,3.56c-1,1.78-.89,3.55-1.35,5.49-.59,2.49-3.17,3.84-5.08,5.24-3.06,2.23-6.67,5.92-6.67,10l1.28,3.87c.84-1.87,1.54-3.84,2.51-5.65a20,20,0,0,1,4-5.18,21.1,21.1,0,0,1,3.34-2.53c6.7-4.09,12-5.8,17.4-7.6s11.82-7.39,11.54-12.44c0,0,2.44-.31,1.75,2.55s-4.89,8.8-15.11,12.22S135.82,138.71,134.16,139.75Z"/><path class="cls-1" d="M62.84,162.75s-9.58,2.6-15.26,2.6-21.46-1.68-21.46-18.22c0-15.62,2.58-18.82,2.58-18.82s.55,5.55,16.73,10.66c5,1.57,10,3.91,13.7,7.74a16.41,16.41,0,0,1,2.65,3.56c.95,1.78.89,3.55,1.35,5.49.59,2.49,3.17,3.84,5.07,5.24,3.06,2.23,6.68,5.92,6.68,10l-2.37,1.72s-.38-1.1-.42-1.24a19.76,19.76,0,0,0-8.36-10c-6.7-4.09-12-5.8-17.41-7.6s-11.81-7.39-11.53-12.44c0,0-2.44-.31-1.75,2.55s4.89,8.8,15.11,12.22S61.18,161.71,62.84,162.75Z"/><path class="cls-1" d="M74.27,168c-.59,1.42-1.23,2.83-1.91,4.21A61.9,61.9,0,0,1,57,192.5l-57,13H203l-57-13c-12.11-10.24-19.35-26-22.29-41.29q-.6-3.11-1-6.17h0c-1.32-11.09-.36-21.55,2.65-29,6.9-1.69,20.6-14.22,20.6-14.22,58.89-5.45,55.52-92.6,55.52-92.6H166.74V4.84S141.45,0,101.5,0,36.26,4.84,36.26,4.84V9.18H1.5S-1.87,96.33,57,101.78c0,0,13.7,12.53,20.6,14.22,5.07,12.62,4.32,33.68-3.35,52C74.27,168,74.28,168,74.27,168ZM164.68,21.18h19.43S182.06,79.39,155.26,82C155.26,82,156,81.17,164.68,21.18Zm-145.79,0H38.32C47,81.17,47.74,82,47.74,82,20.94,79.39,18.89,21.18,18.89,21.18ZM80.19,78a6.12,6.12,0,0,1-10.68-4.08V51.34c0-.46,0-.91,0-1.36l-6.36-6.42a6.12,6.12,0,0,1,8.66-8.66L74.88,38a19.34,19.34,0,0,1,27.19-.75,19.35,19.35,0,0,1,32.57,14.12v9.32c0,.22,0,.45,0,.67l0,12.55A6.11,6.11,0,0,1,124,78a6,6,0,0,1-1.57-4.08V54.24a3,3,0,0,1,0-.42V52.15A7.1,7.1,0,0,0,108.2,52V73.88a6.12,6.12,0,0,1-12.24,0V61c0-.11,0-.22,0-.33V52a7.1,7.1,0,0,0-14.2.18V73.88A6,6,0,0,1,80.19,78Z"/></g></g></svg>