<svg xmlns="http://www.w3.org/2000/svg" viewBox="0 0 475.16 335.7"><defs><style>.cls-1{fill:#c00d0e;}.cls-2{fill:#424648;}.cls-3{fill:#693;}.cls-4{fill:#fff;}</style></defs><g id="Layer_2" data-name="Layer 2"><g id="Logo_icon_copy_Image" data-name="Logo icon copy Image"><path d="M144.81,269.43v1.49a14.79,14.79,0,0,1-.23,2.29H98.94A38.43,38.43,0,0,0,101,284.47a21.9,21.9,0,0,0,4.39,7.5,15.67,15.67,0,0,0,6.1,4.11,20.27,20.27,0,0,0,7.07,1.26A18.74,18.74,0,0,0,130,293.57q5.07-3.78,6.67-11.33H144a26,26,0,0,1-3.54,9.15,24.3,24.3,0,0,1-6,6.47,24.91,24.91,0,0,1-7.7,3.83A30.63,30.63,0,0,1,118,303a27.42,27.42,0,0,1-10.5-2A23.68,23.68,0,0,1,98.93,295a27.53,27.53,0,0,1-5.71-9.9,42.72,42.72,0,0,1-2-14,38.91,38.91,0,0,1,2.11-13.21,29.83,29.83,0,0,1,5.88-10.07,25.54,25.54,0,0,1,8.9-6.4,27.41,27.41,0,0,1,11.07-2.23,25.18,25.18,0,0,1,11.18,2.34,22.57,22.57,0,0,1,8,6.46,29.48,29.48,0,0,1,4.85,9.61A40.75,40.75,0,0,1,144.81,269.43ZM119,244.84a18.35,18.35,0,0,0-7.19,1.44,18.77,18.77,0,0,0-6.16,4.25,23.3,23.3,0,0,0-4.56,7.07,29.77,29.77,0,0,0-2.17,10h38.78q-.57-11.72-5.82-17.24A17.08,17.08,0,0,0,119,244.84Z"/><path d="M184.16,239.47a11.59,11.59,0,0,1,3.54.45v5.61a17.59,17.59,0,0,0-7.26.8,14.07,14.07,0,0,0-5.84,3.77,18.09,18.09,0,0,0-3.83,6.92,34.38,34.38,0,0,0-1.37,10.35v34h-7.09V240.84h7.09v11l4.35-7.78a14.73,14.73,0,0,1,4.74-3.37A13.74,13.74,0,0,1,184.16,239.47Z"/><path d="M201.54,301.35V240.84h7.09v60.51Z"/><path d="M239.29,284.76v3c0,.73,0,1.51.11,2.35.23,2.9,1.1,4.8,2.63,5.72s4.35,1.1,8.46.57v5.26a30.5,30.5,0,0,1-3.66.46c-1.22.07-2.44.11-3.66.11q-5.14,0-7.77-2.29t-3.09-7.32c-.08-1.06-.12-2.19-.12-3.37V246.79h-7.77v-5.61h7.77V227.8h7.1v13.38h11.55v5.61H239.29Z"/><path class="cls-1" d="M291.1,239.35a9.3,9.3,0,0,1,4.12.8v7.44a20.13,20.13,0,0,0-7.21.8,14,14,0,0,0-5.72,3.37,16,16,0,0,0-3.77,6.12,26,26,0,0,0-1.38,8.92v34.55h-9.83V240.72h9.83v9.5l5.49-8.12A14.73,14.73,0,0,1,291.1,239.35Z"/><path class="cls-1" d="M333.3,239.12a32.16,32.16,0,0,1,13.44,2.58,25.92,25.92,0,0,1,9.32,6.92,29.16,29.16,0,0,1,5.49,10.18A40.55,40.55,0,0,1,363.38,271a40.1,40.1,0,0,1-1.83,12.19,29.89,29.89,0,0,1-5.49,10.18,25.69,25.69,0,0,1-9.32,7,36.14,36.14,0,0,1-26.82,0,25.66,25.66,0,0,1-9.38-7,29.89,29.89,0,0,1-5.49-10.18A40.1,40.1,0,0,1,303.22,271a40.55,40.55,0,0,1,1.83-12.23,29.16,29.16,0,0,1,5.49-10.18,25.89,25.89,0,0,1,9.38-6.92A32.26,32.26,0,0,1,333.3,239.12Zm0,56.28a17.81,17.81,0,0,0,8.18-1.83,17.58,17.58,0,0,0,6.06-5,23.1,23.1,0,0,0,3.78-7.72,37.35,37.35,0,0,0,0-19.61,23.88,23.88,0,0,0-3.78-7.72,16.84,16.84,0,0,0-6.06-5,19.76,19.76,0,0,0-16.35,0,16.79,16.79,0,0,0-6.07,5,23.66,23.66,0,0,0-3.77,7.72,37.08,37.08,0,0,0,0,19.61,22.9,22.9,0,0,0,3.77,7.72,17.52,17.52,0,0,0,6.07,5A17.77,17.77,0,0,0,333.3,295.4Z"/><path class="cls-1" d="M404.9,239.12a32.16,32.16,0,0,1,13.44,2.58,26,26,0,0,1,9.33,6.92,29.16,29.16,0,0,1,5.49,10.18A40.55,40.55,0,0,1,435,271a40.1,40.1,0,0,1-1.83,12.19,29.89,29.89,0,0,1-5.49,10.18,25.81,25.81,0,0,1-9.33,7,36.14,36.14,0,0,1-26.82,0,25.66,25.66,0,0,1-9.38-7,29.89,29.89,0,0,1-5.49-10.18A40.1,40.1,0,0,1,374.82,271a40.55,40.55,0,0,1,1.83-12.23,29.16,29.16,0,0,1,5.49-10.18,25.89,25.89,0,0,1,9.38-6.92A32.26,32.26,0,0,1,404.9,239.12Zm0,56.28a17.81,17.81,0,0,0,8.18-1.83,17.58,17.58,0,0,0,6.06-5,23.1,23.1,0,0,0,3.78-7.72,37.35,37.35,0,0,0,0-19.61,23.88,23.88,0,0,0-3.78-7.72,16.84,16.84,0,0,0-6.06-5,19.76,19.76,0,0,0-16.35,0,16.79,16.79,0,0,0-6.07,5,23.86,23.86,0,0,0-3.77,7.72,37.08,37.08,0,0,0,0,19.61,23.08,23.08,0,0,0,3.77,7.72,17.52,17.52,0,0,0,6.07,5A17.77,17.77,0,0,0,404.9,295.4Z"/><path class="cls-1" d="M463.24,283.62v2.51c0,.61,0,1.34.11,2.18.23,2.9,1.07,4.76,2.52,5.6s4.12,1,8,.57v7.21c-1.45.23-2.86.38-4.24.46s-2.74.11-4.11.11q-5.73,0-8.64-2.46c-1.94-1.64-3.07-4.36-3.37-8.18-.08-.84-.12-1.86-.12-3.09v-39.8h-8.12v-7.55h8.12V227.11h9.84v14.07h11.32v7.55H463.24Z"/><path class="cls-1" d="M205.09,221.82A6,6,0,0,1,209.36,232a5.66,5.66,0,0,1-4.27,1.78,6,6,0,0,1-4.21-10.25A5.88,5.88,0,0,1,205.09,221.82Z"/><path class="cls-2" d="M7.66,315.17a8.29,8.29,0,0,1,2.86.46,6.18,6.18,0,0,1,2.09,1.28A5.74,5.74,0,0,1,14,318.82a7.74,7.74,0,0,1,.63,2.38H11.32a4.07,4.07,0,0,0-1.14-2.65,3.69,3.69,0,0,0-2.69-.95,4.07,4.07,0,0,0-2.36.66,2.3,2.3,0,0,0-1,2.05,2.62,2.62,0,0,0,1,2.2,8.65,8.65,0,0,0,3.26,1.32A10.3,10.3,0,0,1,13.25,326,5.14,5.14,0,0,1,14.81,330a5.06,5.06,0,0,1-.55,2.4,5.5,5.5,0,0,1-1.52,1.8,6.81,6.81,0,0,1-2.23,1.14,8.86,8.86,0,0,1-2.7.4,8.69,8.69,0,0,1-5.45-1.57A6.31,6.31,0,0,1,0,329.55H3.26a4.68,4.68,0,0,0,1.6,2.78,4.61,4.61,0,0,0,2.95.94,4.3,4.3,0,0,0,2.61-.78,2.51,2.51,0,0,0,1.08-2.13,3.07,3.07,0,0,0-1-2.43,7.79,7.79,0,0,0-3.4-1.42,23.55,23.55,0,0,1-2.56-.79,7.29,7.29,0,0,1-2-1.11A4.76,4.76,0,0,1,1.3,323a5.2,5.2,0,0,1-.44-2.22,5,5,0,0,1,.54-2.35,5.25,5.25,0,0,1,1.47-1.77,6.51,6.51,0,0,1,2.18-1.11A8.68,8.68,0,0,1,7.66,315.17Z"/><path class="cls-2" d="M28.8,318V335.3H25.65V318H18.76v-2.46H35.69V318Z"/><path class="cls-2" d="M54.16,330.21a20,20,0,0,0,.47,3.08,5.8,5.8,0,0,0,.9,2H52.07a10.84,10.84,0,0,1-.61-2,25.27,25.27,0,0,1-.39-2.68,5.66,5.66,0,0,0-.83-2.5,2.42,2.42,0,0,0-2-1l-.73,0H43.72v8.23H40.58V315.57h6.8l1.4,0c.4,0,.84,0,1.32.1a8.25,8.25,0,0,1,2,.5,4.49,4.49,0,0,1,1.57,1,4.7,4.7,0,0,1,1,1.57A5.83,5.83,0,0,1,55.1,321a4.42,4.42,0,0,1-1,3.08,5.7,5.7,0,0,1-2.62,1.63,3.78,3.78,0,0,1,2,1.79A7.7,7.7,0,0,1,54.16,330.21ZM47,324.64h1a4.81,4.81,0,0,0,.77-.06,3.79,3.79,0,0,0,2.15-.91,3,3,0,0,0,.86-2.34,3.11,3.11,0,0,0-.73-2.29,3.48,3.48,0,0,0-2-.9l-.81-.08q-.42,0-1,0H43.72v6.61Z"/><path class="cls-2" d="M69.23,315.17a10.45,10.45,0,0,1,4,.74,8.44,8.44,0,0,1,3,2.09,9,9,0,0,1,1.84,3.25,14.18,14.18,0,0,1,0,8.36,9.18,9.18,0,0,1-1.84,3.25,8.34,8.34,0,0,1-3,2.1,11.34,11.34,0,0,1-8.06,0,8.42,8.42,0,0,1-3-2.1,8.9,8.9,0,0,1-1.85-3.25,14.18,14.18,0,0,1,0-8.36A8.74,8.74,0,0,1,62.19,318a8.52,8.52,0,0,1,3-2.09A10.42,10.42,0,0,1,69.23,315.17Zm0,18.1a5.37,5.37,0,0,0,4.5-2.08,11,11,0,0,0,0-11.52,6,6,0,0,0-9,0,11,11,0,0,0,0,11.52A5.38,5.38,0,0,0,69.23,333.27Z"/><path class="cls-2" d="M96.54,335.3,87.79,319c0,1.15.06,2.31.08,3.5s0,2.31,0,3.34v9.43H84.75V315.57h4.44L98,332c0-1.13-.06-2.3-.07-3.52s0-2.35,0-3.38v-9.49H101l0,19.73Z"/><path class="cls-2" d="M124.39,325.52v9.78h-2.66l-.11-3.34-.89,1.91a6.46,6.46,0,0,1-5,1.83A9.19,9.19,0,0,1,112,335a7.94,7.94,0,0,1-2.82-2.09,9.11,9.11,0,0,1-1.76-3.22,13.42,13.42,0,0,1-.6-4.13,12.43,12.43,0,0,1,.7-4.23,9.7,9.7,0,0,1,2-3.27,8.77,8.77,0,0,1,3-2.11,9.84,9.84,0,0,1,3.84-.74,10.43,10.43,0,0,1,3.42.51,7.46,7.46,0,0,1,2.51,1.41,6.6,6.6,0,0,1,1.62,2.16,8.23,8.23,0,0,1,.73,2.7l0,.28h-3.18l-.06-.28a5.75,5.75,0,0,0-1.64-3.18,4.92,4.92,0,0,0-3.5-1.17,5.49,5.49,0,0,0-2.49.56,5.34,5.34,0,0,0-1.9,1.58,7.46,7.46,0,0,0-1.22,2.46,11.32,11.32,0,0,0-.43,3.18,11.92,11.92,0,0,0,.43,3.29,7.8,7.8,0,0,0,1.2,2.49,5.25,5.25,0,0,0,1.86,1.57,5.65,5.65,0,0,0,4.42.17,4.92,4.92,0,0,0,1.62-1,5.48,5.48,0,0,0,1.1-1.65,6.39,6.39,0,0,0,.47-2.16h-4.4v-2.52Z"/><path class="cls-2" d="M152.81,330.21a20,20,0,0,0,.47,3.08,5.8,5.8,0,0,0,.9,2h-3.46a11.66,11.66,0,0,1-.61-2c-.15-.7-.27-1.59-.39-2.68a5.66,5.66,0,0,0-.83-2.5,2.41,2.41,0,0,0-2-1l-.73,0h-3.79v8.23h-3.14V315.57H146l1.4,0c.4,0,.84,0,1.32.1a8.25,8.25,0,0,1,2,.5,4.4,4.4,0,0,1,1.57,1,4.7,4.7,0,0,1,1.05,1.57,5.83,5.83,0,0,1,.38,2.19,4.37,4.37,0,0,1-1,3.08,5.7,5.7,0,0,1-2.62,1.63,3.78,3.78,0,0,1,2,1.79A7.7,7.7,0,0,1,152.81,330.21Zm-7.15-5.57h1a4.72,4.72,0,0,0,.77-.06,3.79,3.79,0,0,0,2.15-.91,3,3,0,0,0,.86-2.34,3.11,3.11,0,0,0-.73-2.29,3.48,3.48,0,0,0-2-.9l-.81-.08q-.42,0-1,0h-3.49v6.61Z"/><path class="cls-2" d="M167.88,315.17a10.42,10.42,0,0,1,4,.74,8.44,8.44,0,0,1,3,2.09,9,9,0,0,1,1.84,3.25,14.18,14.18,0,0,1,0,8.36,9.18,9.18,0,0,1-1.84,3.25,8.34,8.34,0,0,1-3,2.1,11.34,11.34,0,0,1-8.06,0,8.51,8.51,0,0,1-3-2.1,9.19,9.19,0,0,1-1.85-3.25,14.18,14.18,0,0,1,0-8.36,9,9,0,0,1,1.85-3.25,8.61,8.61,0,0,1,3-2.09A10.42,10.42,0,0,1,167.88,315.17Zm0,18.1a5.36,5.36,0,0,0,4.5-2.08,11,11,0,0,0,0-11.52,6,6,0,0,0-9,0,11,11,0,0,0,0,11.52A5.38,5.38,0,0,0,167.88,333.27Z"/><path class="cls-2" d="M191.61,315.17a10.5,10.5,0,0,1,4,.74,8.4,8.4,0,0,1,3,2.09,9,9,0,0,1,1.85,3.25,14.18,14.18,0,0,1,0,8.36,9.19,9.19,0,0,1-1.85,3.25,8.3,8.3,0,0,1-3,2.1,11.37,11.37,0,0,1-8.07,0,8.47,8.47,0,0,1-3-2.1,9.06,9.06,0,0,1-1.86-3.25,14.18,14.18,0,0,1,0-8.36,8.9,8.9,0,0,1,1.86-3.25,8.57,8.57,0,0,1,3-2.09A10.45,10.45,0,0,1,191.61,315.17Zm0,18.1a5.38,5.38,0,0,0,4.51-2.08,11.11,11.11,0,0,0,0-11.52,6,6,0,0,0-9,0,11,11,0,0,0,0,11.52A5.41,5.41,0,0,0,191.61,333.27Z"/><path class="cls-2" d="M214.4,318V335.3h-3.14V318h-6.89v-2.46h16.92V318Z"/><path class="cls-2" d="M232.5,315.17a8.29,8.29,0,0,1,2.86.46,6.18,6.18,0,0,1,2.09,1.28,5.74,5.74,0,0,1,1.34,1.91,7.74,7.74,0,0,1,.63,2.38h-3.26a4.07,4.07,0,0,0-1.14-2.65,3.69,3.69,0,0,0-2.69-.95,4.07,4.07,0,0,0-2.36.66,2.3,2.3,0,0,0-.95,2.05,2.62,2.62,0,0,0,1,2.2,8.58,8.58,0,0,0,3.26,1.32,10.35,10.35,0,0,1,4.84,2.19,5.14,5.14,0,0,1,1.56,3.94,5,5,0,0,1-.56,2.4,5.35,5.35,0,0,1-1.51,1.8,6.81,6.81,0,0,1-2.23,1.14,8.86,8.86,0,0,1-2.7.4,8.69,8.69,0,0,1-5.45-1.57,6.31,6.31,0,0,1-2.36-4.58h3.26a4.68,4.68,0,0,0,1.6,2.78,4.61,4.61,0,0,0,3,.94,4.3,4.3,0,0,0,2.61-.78,2.5,2.5,0,0,0,1.07-2.13,3.07,3.07,0,0,0-1-2.43,7.79,7.79,0,0,0-3.4-1.42,22.88,22.88,0,0,1-2.56-.79,7.29,7.29,0,0,1-2-1.11,4.76,4.76,0,0,1-1.26-1.6,5.2,5.2,0,0,1-.44-2.22,5,5,0,0,1,.54-2.35,5.25,5.25,0,0,1,1.47-1.77,6.51,6.51,0,0,1,2.18-1.11A8.68,8.68,0,0,1,232.5,315.17Z"/><path class="cls-2" d="M261.78,315.17a10.37,10.37,0,0,1,3.41.51,7.41,7.41,0,0,1,2.48,1.41,6.6,6.6,0,0,1,1.62,2.16A8.23,8.23,0,0,1,270,322l0,.28h-3.12l-.06-.28a5.71,5.71,0,0,0-1.66-3.18,4.9,4.9,0,0,0-3.48-1.17,5.45,5.45,0,0,0-2.48.56,5.36,5.36,0,0,0-1.88,1.58,7.26,7.26,0,0,0-1.21,2.46,11.72,11.72,0,0,0-.41,3.18,12.34,12.34,0,0,0,.41,3.29,7.58,7.58,0,0,0,1.19,2.49,5.11,5.11,0,0,0,4.23,2.11,4.85,4.85,0,0,0,3.49-1.2,5.91,5.91,0,0,0,1.66-3.2l.06-.29h3.11l0,.29a7.86,7.86,0,0,1-.76,2.7,7.05,7.05,0,0,1-1.67,2.17,7.86,7.86,0,0,1-2.56,1.44,10.43,10.43,0,0,1-3.45.52,9.4,9.4,0,0,1-3.8-.74,8,8,0,0,1-2.86-2.09,9.34,9.34,0,0,1-1.8-3.22,12.83,12.83,0,0,1-.63-4.13,12.19,12.19,0,0,1,.7-4.23A9.66,9.66,0,0,1,255,318a8.56,8.56,0,0,1,3-2.11A9.62,9.62,0,0,1,261.78,315.17Z"/><path class="cls-2" d="M289.78,330.21a20,20,0,0,0,.47,3.08,5.8,5.8,0,0,0,.9,2h-3.46a10.84,10.84,0,0,1-.61-2,25.27,25.27,0,0,1-.39-2.68,5.66,5.66,0,0,0-.83-2.5,2.42,2.42,0,0,0-2-1l-.73,0h-3.79v8.23H276.2V315.57H283l1.4,0c.4,0,.84,0,1.32.1a8.25,8.25,0,0,1,2,.5,4.49,4.49,0,0,1,1.57,1,4.7,4.7,0,0,1,1,1.57,5.83,5.83,0,0,1,.38,2.19,4.42,4.42,0,0,1-1,3.08,5.7,5.7,0,0,1-2.62,1.63,3.78,3.78,0,0,1,2,1.79A7.7,7.7,0,0,1,289.78,330.21Zm-7.15-5.57h1a4.81,4.81,0,0,0,.77-.06,3.79,3.79,0,0,0,2.15-.91,3,3,0,0,0,.85-2.34,3.11,3.11,0,0,0-.72-2.29,3.48,3.48,0,0,0-2-.9l-.81-.08q-.42,0-1,0h-3.49v6.61Z"/><path class="cls-2" d="M310.28,335.3H296.64V315.57H310V318h-10.2v6.18h9.4v2.46h-9.4v6.11h10.49Z"/><path class="cls-2" d="M319.52,328.78l-2.15,6.52H314l7.09-19.73h4.06l6.89,19.73h-3.4l-2.15-6.52Zm6.17-2.46-2.6-8.12-2.74,8.12Z"/><path class="cls-2" d="M343.16,318V335.3H340V318h-6.89v-2.46h16.93V318Z"/><path class="cls-2" d="M368.58,335.3H354.94V315.57H368.3V318H358.09v6.18h9.41v2.46h-9.41v6.11h10.49Z"/><path class="cls-2" d="M403,335.3h-3.14V322c0-1.26,0-2.42.06-3.46-.29,1-.62,2.2-1,3.46s-.76,2.44-1.14,3.57l-3.17,9.72H391l-3.21-9.75c-.36-1.1-.73-2.28-1.11-3.53s-.71-2.4-1-3.45c0,1.07,0,2.22,0,3.46V335.3h-3.14V315.57h5.07l5.21,16.93,5.21-16.93H403Z"/><path class="cls-2" d="M423.66,335.3H410V315.57h13.35V318H413.16v6.18h9.41v2.46h-9.41v6.11h10.5Z"/><path class="cls-2" d="M443,330.21a21.17,21.17,0,0,0,.48,3.08,5.8,5.8,0,0,0,.9,2H441a11.69,11.69,0,0,1-.62-2c-.14-.7-.27-1.59-.38-2.68a5.79,5.79,0,0,0-.83-2.5,2.42,2.42,0,0,0-2-1l-.73,0h-3.79v8.23h-3.15V315.57h6.81l1.4,0a12.91,12.91,0,0,1,1.31.1,8.22,8.22,0,0,1,2,.5,4.49,4.49,0,0,1,1.57,1,4.68,4.68,0,0,1,1,1.57A5.64,5.64,0,0,1,444,321a4.37,4.37,0,0,1-1.05,3.08,5.62,5.62,0,0,1-2.61,1.63,3.82,3.82,0,0,1,2,1.79A7.5,7.5,0,0,1,443,330.21Zm-7.14-5.57h1a4.9,4.9,0,0,0,.77-.06,3.76,3.76,0,0,0,2.14-.91,2.92,2.92,0,0,0,.86-2.34,3.07,3.07,0,0,0-.73-2.29,3.45,3.45,0,0,0-2-.9l-.82-.08c-.28,0-.61,0-1,0h-3.49v6.61Z"/><path class="cls-2" d="M449.91,335.3V315.57h3.14V335.3Z"/><path class="cls-2" d="M468.26,318V335.3h-3.14V318h-6.89v-2.46h16.93V318Z"/><path d="M78.08,257.32v44H71.3V259.17a14.43,14.43,0,1,0-28.86,0v42.18h-6.8V259.17a14.43,14.43,0,0,0-28.86,0v42.18H0v-44a18.08,18.08,0,0,1,18.07-18.08h6.28A18,18,0,0,1,39,246.81a18,18,0,0,1,14.69-7.57H60A18.08,18.08,0,0,1,78.08,257.32Z"/><path class="cls-3" d="M275.09,132.7s9.09,2.47,14.49,2.47,20.38-1.6,20.38-17.3C310,103,307.5,100,307.5,100s-.51,5.27-15.89,10.12c-4.73,1.49-9.52,3.72-13,7.35a15.3,15.3,0,0,0-2.51,3.38c-.91,1.69-.85,3.37-1.29,5.21-.56,2.37-3,3.65-4.82,5-2.9,2.12-6.33,5.63-6.33,9.48l1.22,3.68c.79-1.78,1.46-3.64,2.38-5.36a19.22,19.22,0,0,1,3.81-4.92,19.5,19.5,0,0,1,3.18-2.4,71,71,0,0,1,16.52-7.22c5.17-1.7,11.22-7,11-11.81,0,0,2.32-.3,1.67,2.42s-4.65,8.36-14.35,11.6S276.66,131.72,275.09,132.7Z"/><path class="cls-3" d="M207.37,154.54s-9.1,2.47-14.49,2.47-20.38-1.6-20.38-17.3c0-14.84,2.46-17.87,2.46-17.87s.51,5.27,15.88,10.12c4.74,1.49,9.52,3.72,13,7.35a16,16,0,0,1,2.51,3.38c.91,1.69.84,3.37,1.28,5.21.56,2.37,3,3.65,4.82,5,2.91,2.13,6.34,5.63,6.34,9.49L216.55,164s-.36-1.05-.4-1.18a18.79,18.79,0,0,0-7.94-9.47,71,71,0,0,0-16.52-7.21c-5.17-1.7-11.23-7-11-11.81,0,0-2.31-.3-1.66,2.42s4.65,8.36,14.35,11.6S205.79,153.56,207.37,154.54Z"/><path class="cls-1" d="M201.84,182.79,147.7,195.15H340.45l-54.14-12.36c-21.5-18.19-26.83-54.56-19.56-72.64,6.55-1.61,19.56-13.51,19.56-13.51C342.23,91.47,339,8.72,339,8.72H306V4.6S282,0,244.08,0s-62,4.6-62,4.6V8.72h-33s-3.2,82.75,52.72,87.92c0,0,13,11.9,19.56,13.51C228.68,128.23,223.34,164.6,201.84,182.79ZM304.07,20.11h18.45s-1.95,55.27-27.4,57.7C295.12,77.81,295.81,77.07,304.07,20.11Zm-138.43,0h18.45c8.26,57,8.94,57.7,8.94,57.7C167.58,75.38,165.64,20.11,165.64,20.11Z"/><path class="cls-4" d="M270.16,35.76a18.39,18.39,0,0,0-25.54-.42,18.39,18.39,0,0,0-25.82.71l-2.92-2.91a5.81,5.81,0,1,0-8.22,8.22l6,6.1c0,.43,0,.85,0,1.29v21.4a5.81,5.81,0,1,0,11.62,0V49.52a6.75,6.75,0,0,1,11.52-4.77,6.62,6.62,0,0,1,2,4.6V57.6c0,.1,0,.21,0,.31V70.15A5.81,5.81,0,0,0,248.94,74a5.73,5.73,0,0,0,1.5-3.88V49.35a6.74,6.74,0,0,1,13.48.17V51.1a2.75,2.75,0,0,0,0,.4V70.15a5.81,5.81,0,0,0,11.62,0l0-11.92c0-.2,0-.42,0-.63V48.75A18.33,18.33,0,0,0,270.16,35.76Z"/></g></g></svg>